<?xml version="1.0" standalone="no"?>
<!DOCTYPE svg PUBLIC "-//W3C//DTD SVG 20010904//EN"
 "http://www.w3.org/TR/2001/REC-SVG-20010904/DTD/svg10.dtd">
<svg version="1.0" xmlns="http://www.w3.org/2000/svg"
 width="225.000000pt" height="225.000000pt" viewBox="0 0 225.000000 225.000000"
 preserveAspectRatio="xMidYMid meet">
<metadata>
Created by potrace 1.11, written by Peter Selinger 2001-2013
</metadata>
<g transform="translate(0.000000,225.000000) scale(0.100000,-0.100000)"
fill="#000000" stroke="none">
<path d="M658 2038 c-48 -20 -48 -21 -48 -68 l0 -48 54 -4 c74 -6 124 -43 185
-134 47 -70 108 -211 132 -304 l11 -45 -220 -525 c-121 -289 -238 -569 -260
-622 l-41 -98 93 0 93 0 193 493 c106 270 198 501 203 512 12 24 5 43 159
-435 61 -190 123 -370 138 -401 32 -62 94 -123 148 -146 20 -8 71 -18 114 -21
63 -4 90 -1 148 18 l70 23 0 48 0 49 -66 0 c-82 0 -124 19 -152 68 -11 20
-102 295 -201 609 -233 743 -276 850 -386 960 -42 41 -65 55 -120 72 -89 28
-184 27 -247 -1z"/>
</g>
</svg>
